<?xml version="1.0" encoding="UTF-8" standalone="no"?>
<!-- Created with Inkscape (http://www.inkscape.org/) -->

<svg
   version="1.1"
   id="svg1"
   width="76"
   height="55"
   viewBox="0 0 76 55"
   sodipodi:docname="favicon.svg"
   inkscape:version="1.4.2 (f4327f4, 2025-05-13)"
   xmlns:inkscape="http://www.inkscape.org/namespaces/inkscape"
   xmlns:sodipodi="http://sodipodi.sourceforge.net/DTD/sodipodi-0.dtd"
   xmlns="http://www.w3.org/2000/svg"
   xmlns:svg="http://www.w3.org/2000/svg">
  <defs
     id="defs1" />
  <sodipodi:namedview
     id="namedview1"
     pagecolor="#ffffff"
     bordercolor="#000000"
     borderopacity="0.25"
     inkscape:showpageshadow="2"
     inkscape:pageopacity="0.0"
     inkscape:pagecheckerboard="0"
     inkscape:deskcolor="#d1d1d1"
     showgrid="false"
     inkscape:zoom="8.3815789"
     inkscape:cx="28.932496"
     inkscape:cy="27.500785"
     inkscape:window-width="1366"
     inkscape:window-height="697"
     inkscape:window-x="-8"
     inkscape:window-y="-8"
     inkscape:window-maximized="1"
     inkscape:current-layer="g1" />
  <g
     inkscape:groupmode="layer"
     inkscape:label="Image"
     id="g1">
    <path
       style="fill:#0b0b0b;stroke:none"
       d="m 4.9262149,53.596545 c 19.4220261,4.450344 12.2227141,-22.219457 13.0933651,-33 0.332853,-4.121452 1.980175,-7.995361 2.906635,-11.9999986 h 1 L 33.926221,53.596545 h 14 c -6.43215,-16.673912 -9.56348,-27.901939 -4,-44.9999986 l 13,44.9999986 h 14 C 64.490651,39.825587 61.820141,24.076156 57.267271,9.596546 55.731291,4.7116282 50.825011,-2.7995794 44.920821,3.1999438 40.974391,7.2100909 40.182741,15.505893 37.926221,20.596545 35.893301,15.872714 35.409921,5.7797167 31.223291,2.624325 25.640131,-1.5836065 21.187093,3.9238131 19.593654,8.597317 14.682677,23.001037 7.1467867,38.560382 4.9262149,53.596545 Z"
       id="path1" />
  </g>
</svg>
