<?xml version="1.0" encoding="UTF-8" standalone="no"?>
<!-- Created with Inkscape (http://www.inkscape.org/) -->

<svg
   version="1.1"
   id="svg1"
   width="1024"
   height="1024"
   viewBox="0 0 1024 1024"
   sodipodi:docname="vector negro.svg"
   inkscape:version="1.4.2 (f4327f4, 2025-05-13)"
   xmlns:inkscape="http://www.inkscape.org/namespaces/inkscape"
   xmlns:sodipodi="http://sodipodi.sourceforge.net/DTD/sodipodi-0.dtd"
   xmlns="http://www.w3.org/2000/svg"
   xmlns:svg="http://www.w3.org/2000/svg">
  <defs
     id="defs1" />
  <sodipodi:namedview
     id="namedview1"
     pagecolor="#ffffff"
     bordercolor="#000000"
     borderopacity="0.25"
     inkscape:showpageshadow="2"
     inkscape:pageopacity="0.0"
     inkscape:pagecheckerboard="0"
     inkscape:deskcolor="#d1d1d1"
     showgrid="false"
     inkscape:zoom="0.48339844"
     inkscape:cx="512"
     inkscape:cy="512"
     inkscape:window-width="1366"
     inkscape:window-height="697"
     inkscape:window-x="-8"
     inkscape:window-y="-8"
     inkscape:window-maximized="1"
     inkscape:current-layer="g1" />
  <g
     inkscape:groupmode="layer"
     inkscape:label="Image"
     id="g1">
    <path
       style="fill:#000000"
       d="m 347.18687,708.29595 c -18.52039,-0.45729 -63.89002,-2.4597 -64.26675,-2.83644 -0.36011,-0.36011 3.29815,-6.7529 15.84214,-27.68409 40.17282,-67.0333 89.1611,-131.6379 139.38299,-183.81506 19.60788,-20.37126 74.31452,-73.41738 90.04162,-87.30856 l 4,-3.53306 1.92718,2.56009 c 7.80186,10.36412 32.078,51.03547 44.29731,74.2141 9.69701,18.39412 29.10609,62.50275 27.99288,63.61597 -0.20138,0.20138 -3.43318,-4.16773 -7.18177,-9.70913 -12.2354,-18.08711 -31.45237,-40.91209 -51.16336,-60.76935 l -19.21988,-19.36251 -7.32618,5.07288 c -37.37132,25.87712 -72.34711,65.42844 -108.47418,122.66475 -12.61323,19.98321 -40.85174,72.74271 -40.051,74.8294 0.47357,1.2341 12.15939,4.64203 62.699,18.28489 36.71789,9.91177 100.86521,24.3731 108.11378,24.3731 1.58742,0 2.88622,0.38408 2.88622,0.85351 0,1.42118 -43.30984,5.33895 -78.62897,7.11272 -20.98828,1.05405 -98.8753,1.97989 -120.87103,1.43679 z m 407.74348,-3.95369 C 701.4724,700.9212 648.21927,692.92867 605.02995,681.84436 561.8384,670.75948 516.16868,652.46369 479.18687,631.43024 c -12.26189,-6.97396 -23.5959,-14.36061 -20,-13.03448 7.97575,2.94137 45.17559,12.54113 66,17.03192 17.79077,3.83658 53.29926,9.25887 73.35571,11.20172 13.37408,1.29553 27.72831,1.71576 59.31096,1.73636 22.91666,0.0149 41.89469,-0.20086 42.17339,-0.47956 0.61205,-0.61205 -11.57082,-40.91419 -21.79398,-72.09661 -15.14968,-46.20917 -27.29631,-79.72851 -40.72996,-112.39666 -7.29126,-17.73103 -10.78096,-26.86638 -9.90224,-25.92213 3.70278,3.97887 37.72475,50.87095 48.19176,66.42213 36.24847,53.85556 71.36831,117.39336 92.30745,167 4.2949,10.175 9.33397,22.06673 11.19791,26.42608 1.86395,4.35934 3.389,8.07184 3.389,8.25 0,0.45682 -4.68307,0.24985 -27.75652,-1.22675 z M 587.68687,693.74177 c -30.91288,-2.86111 -90.2468,-15.44294 -131.97279,-27.98498 -27.59206,-8.29364 -61.02721,-19.38969 -61.02721,-20.25295 0,-1.14073 13.37662,-26.65396 21.81666,-41.61091 21.18826,-37.54863 41.59325,-67.20158 62.27545,-90.5 10.62707,-11.97135 33.54434,-34.85849 30.03949,-30 -1.19029,1.65 -5.29448,7.275 -9.12044,12.5 -20.66077,28.21588 -40.61405,70.07508 -54.81773,115 -4.80485,15.19729 -5.75019,13.15732 10.30657,22.24081 36.42151,20.60407 80.51469,39.96529 119,52.25265 31.41849,10.03111 29.53739,9.35886 26,9.29164 -1.65,-0.0314 -7.275,-0.45266 -12.5,-0.93626 z m 30,-59.51437 c -14.8269,-0.45079 -42.11784,-2.44149 -53.18238,-3.8793 -13.10046,-1.70238 -39.00369,-6.60244 -38.35129,-7.25483 0.26195,-0.26195 6.90169,-0.86425 14.75497,-1.33843 27.14839,-1.63921 56.65453,-6.3159 82.7787,-13.12032 l 12.5,-3.25581 -0.28389,-3.49289 c -0.44447,-5.46867 -5.86753,-27.2215 -10.27102,-41.19882 -17.55813,-55.73205 -52.85765,-127.07884 -85.08775,-171.97789 l -6.95138,-9.68382 -38.25229,38.68382 c -53.35662,53.95854 -73.37868,74.77239 -89.63898,93.18382 -11.31978,12.81731 -11.92418,13.40997 -9.17819,9 1.92695,-3.09462 14.2382,-24.66699 36.5245,-64 7.15659,-12.63064 10.88015,-19.42024 67.63779,-123.33206 17.32433,-31.71737 31.72433,-57.65456 32,-57.6382 1.3421,0.0796 27.19979,46.68779 40.20569,72.47026 29.65685,58.79077 54.48475,119.47982 78.75179,192.5 12.12945,36.49784 28.49602,91.88105 27.45875,92.91831 -1.42365,1.42365 -35.40037,2.20712 -61.41502,1.41616 z"
       id="path1" />
  </g>
</svg>
